<?xml version="1.0" encoding="utf-8"?>
<!-- Generator: Adobe Illustrator 18.0.0, SVG Export Plug-In . SVG Version: 6.00 Build 0)  -->
<svg version="1.1" id="Layer_1" xmlns="http://www.w3.org/2000/svg" xmlns:xlink="http://www.w3.org/1999/xlink" x="0px" y="0px"
	 viewBox="0 0 600 600" enable-background="new 0 0 600 600" xml:space="preserve">
<g>
	<path fill="#E64694" d="M309.7,253.5c6.2,3.8,11.7,8.8,15.9,14.7l16.7-70.6c4.5-19.2-7.5-38.5-26.7-43c-2.7-0.6-5.4-0.9-8.2-0.9
		c-16.7,0-30.3,11.5-34.8,27.6c-4.1,14.6-14.7,52.5-28.9,52.1c-10.4-0.3-10.1-15.5-10.1-26L233.9,44c0.8-17.1-10.6-32.4-27.1-36.5
		c-2.2-0.5-4.5-0.9-6.9-1c-9.5-0.5-18.7,2.8-25.8,9.3c-7.1,6.4-11.2,15.2-11.7,24.7l-13.8,235.6l120.8-28.7
		C283.2,244,297.7,246.2,309.7,253.5z"/>
	<path fill="#E64694" d="M481.9,369l18.9-81.3c2-8.8,0.5-17.8-4.3-25.4c-4.8-7.7-12.3-13-21-15c-2.5-0.6-5.1-0.9-7.6-0.9
		c-15.8,0-29.3,10.8-32.9,26.2c0,0-19.1,82.5-19.3,83c-3.5,15.2-7,24.6-11.6,31.4c-0.9,1.2-1.7,2.4-2.7,3.6
		c-0.2,0.2-0.4,0.4-0.5,0.6c-1,1.1-2.1,2.3-3.5,3.6c-0.5,0.5-1.1,1-1.7,1.5c-10,8.8-22.7,13.6-36,13.6l0-20.9
		c15.8-0.4,29.3-10.8,32.8-26.2l29.8-129.2c2-8.8,0.5-17.8-4.3-25.5c-4.8-7.6-12.3-13-21-15c-2.5-0.6-5.1-0.9-7.6-0.9
		c-15.8,0-29.3,10.8-32.9,26.2l-20,86.7c-5.3,22.9-20.6,39.7-41.1,44.8l-84.9,21.6c-1.4,0.4-2.2,1.7-1.9,3.1c0.3,1.3,1.5,1.9,2.5,2
		c34.2,4.5,63.9,18.5,86,40.5c22.9,22.8,35.6,52.6,37.2,86.1c0.1,1.5,0,1,0,1h-21c-1.9-31.4-15.2-58.4-38.4-78.1
		c-18.7-15.8-43.2-26.3-67.1-28.8c-9.5-1-17.2-7.4-19.6-16.5l-0.3-1.1c-1.6-5.9-0.7-12,2.3-17.2c3-5.1,7.8-8.8,13.6-10.3l86.5-22.5
		c8.8-2.2,16.2-7.6,20.9-15.3c4.7-7.7,6-16.8,3.9-25.5c-2.2-8.8-7.6-16.1-15.3-20.8c-5.3-3.2-11.3-4.9-17.4-4.9
		c-2.7,0-5.5,0.3-8.2,1L138,299.3c-5.6,1.9-49.7,18.3-37.6,65.9c3.4,13.5,9.5,35.4,14.8,54.7c3.9,14.2,7.6,27.5,9.7,35.4
		c23.3,89.2,88.7,138.3,184,138.3c55.2,0,99.8-18.8,132.8-55.8c29.2-32.8,47.4-78.5,52.5-132.1c0.2-1.7-0.6-2.9-1.2-3.6
		c-1-1.1-2.4-1.7-3.8-1.7c-1.2,0-2.2,0.4-3.1,1.2c-10.1,9.3-23.2,14.4-37.1,14.4v-20.9C464.9,395.2,478.4,384.4,481.9,369z"/>
</g>
</svg>
