<?xml version="1.0" encoding="utf-8"?>
<!-- Generator: Adobe Illustrator 18.0.0, SVG Export Plug-In . SVG Version: 6.00 Build 0)  -->
<svg version="1.1" id="Layer_1" xmlns="http://www.w3.org/2000/svg" xmlns:xlink="http://www.w3.org/1999/xlink" x="0px" y="0px"
	 viewBox="0 0 600 600" enable-background="new 0 0 600 600" xml:space="preserve">
<g>
	<path fill="#E64694" d="M8.4,334.7v-69.3c0-7,2.7-13.2,8.1-18.6c5.4-5.5,11.5-8.2,18.4-8.2h190.4c8.6,0,13.1-4.5,13.6-13.5V35.1
		c0-6.9,2.6-13,7.8-18.3c5.2-5.4,11.5-8.1,18.9-8.1h69c6.9,0,13.1,2.7,18.5,8.1c5.4,5.4,8.1,11.5,8.1,18.3V225
		c0,8.6,4.5,13.1,13.6,13.5h190.4c6.9,0,13,2.6,18.4,7.8c5.4,5.2,8.1,11.6,8.1,19v69.3c0,7-2.7,13.2-8.1,18.7
		c-5.4,5.5-11.5,8.2-18.4,8.2H374.7c-8.6,0-13.1,4.5-13.6,13.5v189.9c0,6.9-2.6,13-7.8,18.3c-5.2,5.4-11.5,8-18.9,8h-69
		c-6.9,0-13.1-2.7-18.5-8s-8.1-11.5-8.1-18.3V375c0-8.6-4.5-13.1-13.6-13.5H34.9c-6.9,0-13-2.6-18.4-7.8
		C11.1,348.4,8.4,342.1,8.4,334.7z"/>
</g>
</svg>
