<?xml version="1.0" encoding="utf-8"?>
<!-- Generator: Adobe Illustrator 19.1.0, SVG Export Plug-In . SVG Version: 6.00 Build 0)  -->
<svg version="1.1" id="Layer_1" xmlns="http://www.w3.org/2000/svg" xmlns:xlink="http://www.w3.org/1999/xlink" x="0px" y="0px"
	 viewBox="0 0 821 103.9" style="enable-background:new 0 0 821 103.9;" xml:space="preserve">
<style type="text/css">
	.st0{fill:#E64694;}
</style>
<g>
	<g>
		<path class="st0" d="M412.5,43.7c1.1,0.7,2.1,1.6,2.8,2.6L424,7.8c0.8-3.4-1.3-6.8-4.7-7.6c-0.5-0.1-1-0.2-1.4-0.2
			c-2.9,0-5.5,2-6.1,4.9l-7.9,31.5c-0.5,2.3-1.2,4-3.7,4c-2.6,0-3.3-2.1-3.8-4.2l-6.9-28.1c-0.6-3-3.2-5.1-6.2-5.1
			c-0.4,0-0.8,0-1.2,0.1c-1.7,0.3-3.1,1.3-4,2.7c-0.9,1.4-1.3,3.1-1,4.7l7.4,37.5l21-5.4C407.8,42.1,410.3,42.5,412.5,43.7z"/>
		<path class="st0" d="M437.1,68.8c2.8,0,5.2-1.9,5.8-4.6l3.3-14.4c0.4-1.5,0.1-3.1-0.8-4.5c-0.8-1.4-2.2-2.3-3.7-2.7
			c-0.4-0.1-0.9-0.2-1.3-0.2c-2.8,0-5.2,1.9-5.8,4.6c0,0-3.4,14.6-3.4,14.7c-0.6,2.7-1.2,4.3-2.1,5.6c-0.2,0.2-0.3,0.4-0.5,0.6
			c0,0-0.1,0.1-0.1,0.1c-0.2,0.2-0.4,0.4-0.6,0.6c-0.1,0.1-0.2,0.2-0.3,0.3c-1.8,1.5-4,2.4-6.4,2.4l0-3.7c2.8-0.1,5.2-1.9,5.8-4.6
			l5.3-22.8c0.4-1.6,0.1-3.2-0.8-4.5c-0.8-1.4-2.2-2.3-3.7-2.6c-0.4-0.1-0.9-0.2-1.3-0.2c-2.8,0-5.2,1.9-5.8,4.6l-3.5,15.3
			c-0.9,4-3.6,7-7.3,7.9l-15,3.8c-0.2,0.1-0.4,0.3-0.3,0.5c0.1,0.2,0.3,0.3,0.4,0.4c6,0.8,11.3,3.3,15.2,7.2c4,4,6.3,9.3,6.6,15.2
			c0,0.3,0,0.2,0,0.2h-3.7c-0.3-5.6-2.7-10.3-6.8-13.8c-3.3-2.8-7.6-4.7-11.9-5.1c-1.7-0.2-3-1.3-3.5-2.9l-0.1-0.2
			c-0.3-1-0.1-2.1,0.4-3c0.5-0.9,1.4-1.6,2.4-1.8l15.3-4c1.6-0.4,2.9-1.3,3.7-2.7c0.8-1.4,1.1-3,0.7-4.5c-0.4-1.5-1.3-2.9-2.7-3.7
			c-0.9-0.6-2-0.9-3.1-0.9c-0.5,0-1,0.1-1.4,0.2l-24.1,6.2c-1,0.3-8.8,3.2-6.6,11.6c0.6,2.4,1.7,6.3,2.6,9.7
			c0.7,2.5,1.3,4.9,1.7,6.3c4.1,15.8,15.7,24.5,32.5,24.5c9.8,0,17.6-3.3,23.5-9.9c5.2-5.8,8.4-13.9,9.3-23.4c0-0.3-0.1-0.5-0.2-0.6
			c-0.2-0.2-0.4-0.3-0.7-0.3c-0.2,0-0.4,0.1-0.5,0.2c-1.8,1.6-4.1,2.6-6.5,2.6V68.8z"/>
	</g>
	<g>
		<g>
			<path d="M15.4,68.7V50l-4.1,12.3H8.7l-4-12.1v18.4H0V38.8h4.2L10,54.5l5.8-15.7h4.3v29.9H15.4z"/>
			<path d="M51.5,68.7l-3.9-12.3h-2.6v12.3h-4.7V38.8h7.6c5.5,0,7.6,2.6,7.6,8.8c0,3.7-0.8,6.3-3.5,7.8l4.5,13.3H51.5z M47.8,43
				h-2.9v9.2h2.9c2.5,0,2.9-2.1,2.9-4.6S50.4,43,47.8,43z"/>
			<path d="M75.3,68.7v-5.2h5.2v5.2H75.3z"/>
			<path d="M110.9,68.7V55.6h-5.8v13.1h-4.7V38.8h4.7v12.6h5.8V38.8h4.7v29.9H110.9z"/>
			<path d="M148.8,66.5c-1.3,1.4-2.9,2.5-5.8,2.5s-4.5-1.1-5.8-2.5c-2.2-2.5-2.2-6.9-2.2-12.8c0-5.9,0-10.2,2.2-12.8
				c1.3-1.4,2.9-2.5,5.8-2.5s4.5,1.1,5.8,2.5c2.2,2.5,2.2,6.9,2.2,12.8C151,59.6,151,64,148.8,66.5z M145.2,43.8
				c-0.4-0.7-1.1-1.1-2.3-1.1c-1.1,0-1.8,0.5-2.2,1.1c-0.9,1.4-1.1,4.5-1.1,9.9c0,5.5,0.2,8.5,1.1,9.9c0.4,0.7,1.1,1.1,2.2,1.1
				c1.1,0,1.8-0.5,2.3-1.1c0.9-1.4,1-4.5,1-9.9C146.2,48.3,146.1,45.2,145.2,43.8z"/>
			<path d="M170.3,68.7V38.8h4.7v25.7h7.9v4.2H170.3z"/>
			<path d="M216.9,68.7V50l-4.1,12.3h-2.6l-4-12.1v18.4h-4.7V38.8h4.2l5.8,15.7l5.8-15.7h4.3v29.9H216.9z"/>
			<path d="M241.8,68.7V38.8h12.6V43h-7.9v8.5h6.8v4.2h-6.8v8.7h7.9v4.2H241.8z"/>
			<path d="M286,67c-1.2,1.2-3.2,2-5.8,2c-2.6,0-4.5-0.7-5.8-2c-1.4-1.4-1.9-3.3-1.9-6.4h4.7c0,1.6,0.2,2.6,0.8,3.4
				c0.4,0.5,1.1,0.8,2.2,0.8c1.1,0,1.8-0.3,2.3-0.8c0.6-0.7,0.8-1.7,0.8-3.3c0-3.2-0.5-4-2.8-4.9l-3.6-1.5c-3-1.3-4.2-2.9-4.2-7.5
				c0-2.7,0.8-4.9,2.4-6.3c1.3-1.1,3-1.8,5.1-1.8c2.4,0,4.2,0.6,5.4,1.8c1.6,1.5,2.1,3.7,2.1,6.5H283c0-1.3-0.1-2.4-0.7-3.2
				c-0.4-0.5-1.1-0.9-2.1-0.9c-1,0-1.6,0.3-2,0.8c-0.5,0.6-0.8,1.6-0.8,2.9c0,2.4,0.4,3.2,2.5,4l3.5,1.4c3.6,1.5,4.5,3.4,4.5,8.4
				C288,63.5,287.5,65.5,286,67z"/>
		</g>
	</g>
	<g>
		<path d="M546.9,66.8c-1.3,1.3-3.1,1.9-5.9,1.9h-7.4V38.8h7.5c2.8,0,4.6,0.6,5.8,1.8c1.3,1.4,1.8,3.4,1.8,6.3c0,2-0.2,3.7-1.6,5
			c-0.5,0.5-1,0.8-1.6,1c0.6,0.3,1.2,0.6,1.6,1.1c1.5,1.6,1.6,3.9,1.6,5.7C548.9,63.2,548.4,65.3,546.9,66.8z M540.6,43h-2.2v8.1
			h2.2c2.5,0,3.5-1.2,3.5-4.1C544.1,44,543.1,43,540.6,43z M540.6,55.1h-2.3v9.3h2.3c2.6,0,3.6-1.2,3.6-4.7
			C544.2,56.4,543.1,55.1,540.6,55.1z"/>
		<path d="M580.6,68.7l-1.2-5.9h-6.9l-1.2,5.9h-5l7.4-29.9h4.6l7.3,29.9H580.6z M575.9,46l-2.6,12.5h5.1L575.9,46z"/>
		<path d="M615.2,68.7l-4.8-12.3l-2.3,4.6v7.7h-4.7V38.8h4.7v14.1l6.5-14.1h4.7l-6,12.4l6.9,17.5H615.2z"/>
		<path d="M638.2,68.7V38.8h12.6V43h-7.9v8.5h6.8v4.2h-6.8v8.7h7.9v4.2H638.2z"/>
		<path d="M680.5,68.7V55.6h-5.8v13.1H670V38.8h4.7v12.6h5.8V38.8h4.7v29.9H680.5z"/>
		<path d="M718.3,66.5c-1.3,1.4-2.9,2.5-5.8,2.5s-4.5-1.1-5.8-2.5c-2.2-2.5-2.2-6.9-2.2-12.8c0-5.9,0-10.2,2.2-12.8
			c1.3-1.4,2.9-2.5,5.8-2.5s4.5,1.1,5.8,2.5c2.2,2.5,2.2,6.9,2.2,12.8C720.5,59.6,720.6,64,718.3,66.5z M714.8,43.8
			c-0.4-0.7-1.1-1.1-2.3-1.1c-1.1,0-1.8,0.5-2.2,1.1c-0.9,1.4-1.1,4.5-1.1,9.9c0,5.5,0.2,8.5,1.1,9.9c0.4,0.7,1.1,1.1,2.2,1.1
			c1.1,0,1.8-0.5,2.3-1.1c0.9-1.4,1-4.5,1-9.9C715.8,48.3,715.7,45.2,714.8,43.8z"/>
		<path d="M752.8,66.8c-1.4,1.5-3.3,2.2-5.5,2.2s-4.2-0.7-5.6-2.2c-1.3-1.3-2.1-3.2-2.1-5.5V38.8h4.7v22.8c0,2.1,1.3,3.2,2.9,3.2
			c1.6,0,2.9-1.1,2.9-3.2V38.8h4.7v22.6C754.9,63.6,754.1,65.5,752.8,66.8z"/>
		<path d="M787.3,67c-1.2,1.2-3.2,2-5.8,2c-2.6,0-4.5-0.7-5.8-2c-1.4-1.4-1.9-3.3-1.9-6.4h4.7c0,1.6,0.2,2.6,0.8,3.4
			c0.4,0.5,1.1,0.8,2.2,0.8c1.1,0,1.8-0.3,2.3-0.8c0.6-0.7,0.8-1.7,0.8-3.3c0-3.2-0.5-4-2.8-4.9l-3.6-1.5c-3-1.3-4.2-2.9-4.2-7.5
			c0-2.7,0.8-4.9,2.4-6.3c1.3-1.1,3-1.8,5.1-1.8c2.4,0,4.2,0.6,5.4,1.8c1.6,1.5,2.1,3.7,2.1,6.5h-4.7c0-1.3-0.1-2.4-0.7-3.2
			c-0.4-0.5-1.1-0.9-2.1-0.9c-1,0-1.6,0.3-2,0.8c-0.5,0.6-0.8,1.6-0.8,2.9c0,2.4,0.4,3.2,2.5,4l3.5,1.4c3.6,1.5,4.5,3.4,4.5,8.4
			C789.2,63.5,788.8,65.5,787.3,67z"/>
		<path d="M808.5,68.7V38.8H821V43h-7.9v8.5h6.8v4.2h-6.8v8.7h7.9v4.2H808.5z"/>
	</g>
	<path class="st0" d="M442.1,71.1c1.5-0.9,2.4-2,2.8-2.7l0.4,0.4c-0.2,2.2-0.4,3.9-0.4,3.9"/>
</g>
</svg>
