<?xml version="1.0" encoding="utf-8"?>
<!-- Generator: Adobe Illustrator 18.1.1, SVG Export Plug-In . SVG Version: 6.00 Build 0)  -->
<svg version="1.1" id="Layer_1" xmlns="http://www.w3.org/2000/svg" xmlns:xlink="http://www.w3.org/1999/xlink" x="0px" y="0px"
	 viewBox="201 -3 107.6 107.6" enable-background="new 201 -3 107.6 107.6" xml:space="preserve">
<g>
	<path fill="#E64694" d="M256.5,42.6c1.1,0.7,2.1,1.6,2.8,2.6L268,6.6c0.8-3.4-1.3-6.8-4.7-7.6c-0.5-0.1-1-0.2-1.4-0.2
		c-2.9,0-5.5,2-6.1,4.9l-7.9,31.5c-0.5,2.3-1.2,4-3.7,4c-2.6,0-3.3-2.1-3.8-4.2L233.4,7c-0.6-3-3.2-5.1-6.2-5.1
		c-0.4,0-0.8,0-1.2,0.1c-1.7,0.3-3.1,1.3-4,2.7c-0.9,1.4-1.3,3.1-1,4.7l7.4,37.5l21-5.4C251.8,41,254.4,41.3,256.5,42.6z"/>
	<path fill="#E64694" d="M219.5,62.4c0.6,2.4,1.7,6.3,2.6,9.7c0.7,2.5,1.3,4.9,1.7,6.3c4.1,15.8,15.7,24.5,32.5,24.5
		c9.8,0,17.6-3.3,23.5-9.9c5.2-5.8,8.4-13.9,9.3-23.4c0-0.3-0.1-0.5-0.2-0.6c-0.2-0.2-0.4-0.3-0.7-0.3c-0.2,0-0.4,0.1-0.5,0.2
		c-1.8,1.6-4.1,2.6-6.5,2.6c-0.2,0-0.4,0-0.5,0c-0.6,0-1.1-0.3-1.4-0.7c-0.3-0.4-0.4-1-0.3-1.5c0.2-0.8,0.9-1.4,1.8-1.4
		c0,0,0.1,0,0.1,0c0.1,0,0.3,0,0.4,0c2.8,0,5.2-1.9,5.8-4.6l3.3-14.4c0.4-1.5,0.1-3.1-0.8-4.5c-0.8-1.4-2.2-2.3-3.7-2.7
		c-0.4-0.1-0.9-0.2-1.3-0.2c-2.8,0-5.2,1.9-5.8,4.6c0,0-3.4,14.6-3.4,14.7c-0.6,2.7-1.2,4.3-2.1,5.6c-0.2,0.2-0.3,0.4-0.5,0.6
		c0,0-0.1,0.1-0.1,0.1c-0.2,0.2-0.4,0.4-0.6,0.6c-0.1,0.1-0.2,0.2-0.3,0.3c-1.8,1.5-4,2.4-6.4,2.4c-0.2,0-0.4,0-0.6,0
		c-0.6,0-1.1-0.3-1.4-0.7c-0.3-0.4-0.4-1-0.3-1.5c0.2-0.8,0.9-1.4,1.8-1.4c0.1,0,0.1,0,0.2,0c0.1,0,0.2,0,0.3,0
		c2.8,0,5.2-1.9,5.8-4.6l5.3-22.8c0.4-1.6,0.1-3.2-0.8-4.5c-0.8-1.4-2.2-2.3-3.7-2.6c-0.4-0.1-0.9-0.2-1.3-0.2
		c-2.8,0-5.2,1.9-5.8,4.6l-3.5,15.3c-0.9,4-3.6,7-7.3,7.9l-15,3.8c-0.2,0.1-0.4,0.3-0.3,0.5c0.1,0.2,0.3,0.3,0.4,0.4
		c6,0.8,11.3,3.3,15.2,7.2c4,4,6.3,9.3,6.6,15.2c0,0.9-0.6,1.7-1.5,1.9c-0.1,0-0.2,0-0.3,0c-1,0-1.8-0.8-1.8-1.7
		c-0.3-5.6-2.7-10.3-6.8-13.8c-3.3-2.8-7.6-4.7-11.9-5.1c-1.7-0.2-3-1.3-3.5-2.9L235,65c-0.3-1-0.1-2.1,0.4-3
		c0.5-0.9,1.4-1.6,2.4-1.8l15.3-4c1.6-0.4,2.9-1.3,3.7-2.7c0.8-1.4,1.1-3,0.7-4.5c-0.4-1.5-1.3-2.9-2.7-3.7c-0.9-0.6-2-0.9-3.1-0.9
		c-0.5,0-1,0.1-1.4,0.2l-24.1,6.2C225.2,51,217.4,54,219.5,62.4z"/>
</g>
</svg>
