<?xml version="1.0" encoding="utf-8"?>
<!-- Generator: Adobe Illustrator 19.1.0, SVG Export Plug-In . SVG Version: 6.00 Build 0)  -->
<svg version="1.1" id="Layer_1" xmlns="http://www.w3.org/2000/svg" xmlns:xlink="http://www.w3.org/1999/xlink" x="0px" y="0px"
	 viewBox="0 0 84 91.6" style="enable-background:new 0 0 84 91.6;" xml:space="preserve">
<style type="text/css">
	.st0{fill:#444444;}
</style>
<g>
	<g>
		<g>
			<g>
				<g>
					<path class="st0" d="M3.4,24.6c0.7,0.2,1.8,0.8,2.4,1.2c0.8,0.5,1.3,1.6,0.8,2.6c-0.5,1-1.5,1.4-2.6,1
						c-0.7-0.2-1.8-0.8-2.4-1.2c-0.8-0.5-1.3-1.6-0.8-2.6C1.3,24.6,2.3,24.2,3.4,24.6z M5.5,26.6c-0.6-0.4-1.7-1-2.4-1.2
						c-0.5-0.2-1.1,0-1.4,0.6c-0.3,0.5-0.2,1.1,0.4,1.5c0.6,0.4,1.7,0.9,2.4,1.2c0.5,0.2,1.1,0,1.4-0.6C6.1,27.5,6,26.9,5.5,26.6z"
						/>
				</g>
				<g>
					<path class="st0" d="M11.3,21c-0.1,0.1-0.1,0.1-0.2,0.1l-4.6-1.3c0,0-0.1,0,0,0.1l3.5,2.7c0.1,0.1,0.1,0.2,0,0.3l-0.3,0.4
						c-0.1,0.1-0.2,0.1-0.3,0l-4.7-3.6c-0.1-0.1-0.1-0.2,0-0.3l0.5-0.6c0.1-0.1,0.1-0.1,0.2-0.1L9.9,20c0,0,0.1,0,0-0.1l-3.5-2.7
						c-0.1-0.1-0.1-0.2,0-0.3l0.3-0.4c0.1-0.1,0.2-0.1,0.3,0l4.7,3.6c0.1,0.1,0.1,0.2,0,0.3L11.3,21z"/>
				</g>
				<g>
					<path class="st0" d="M14.6,16.1c0,0,0.1,0,0.1,0l1.5-1.4c0.1-0.1,0.2-0.1,0.3,0l0.3,0.4c0.1,0.1,0.1,0.2,0,0.3l-2.1,1.9
						c-0.1,0.1-0.2,0.1-0.3,0l-4-4.4c-0.1-0.1-0.1-0.2,0-0.3l0.4-0.3c0.1-0.1,0.2-0.1,0.3,0L14.6,16.1z"/>
				</g>
				<g>
					<path class="st0" d="M18.8,9.8C18.8,9.8,18.9,9.8,18.8,9.8l-0.6-2.9c0-0.1,0-0.2,0.1-0.2l0.5-0.3c0.1-0.1,0.2,0,0.3,0.1
						l0.8,4.1l1.1,1.7c0.1,0.1,0,0.2-0.1,0.2l-0.4,0.3c-0.1,0.1-0.2,0-0.2-0.1L19.1,11l-3.4-2.5c-0.1-0.1-0.1-0.2,0-0.3L16.2,8
						c0.1,0,0.1,0,0.2,0L18.8,9.8z"/>
				</g>
				<g>
					<path class="st0" d="M32,6C32,6,31.9,5.9,31.8,6l-1.4,0.4c-0.1,0-0.1,0.1-0.1,0.2l0,1.4c0,0.1-0.1,0.2-0.1,0.2l-0.5,0.1
						c-0.1,0-0.2,0-0.2-0.1l0-6.2c0-0.1,0.1-0.2,0.1-0.2l0.6-0.2c0.1,0,0.2,0,0.2,0.1L33.6,7c0,0.1,0,0.2-0.1,0.2L33,7.3
						c-0.1,0-0.2,0-0.2-0.1L32,6z M31.4,5.2c0.1,0,0.1,0,0-0.1l-1.2-2.3c0,0,0,0,0,0l0,0c0,0,0,0,0,0.1l0.1,2.6c0,0.1,0,0.1,0.1,0.1
						L31.4,5.2z"/>
				</g>
				<g>
					<path class="st0" d="M39,6.3c0,0.1-0.1,0.1-0.2,0.1l-0.7,0.1c-0.1,0-0.1,0-0.2-0.1l-2.2-5.8c0-0.1,0-0.2,0.2-0.2l0.5,0
						c0.1,0,0.1,0,0.2,0.1l1.7,4.7c0,0,0,0.1,0.1,0l0,0c0,0,0,0,0-0.1l0.8-4.9c0-0.1,0.1-0.1,0.2-0.1l0.5,0c0.1,0,0.2,0.1,0.2,0.2
						L39,6.3z"/>
				</g>
				<g>
					<path class="st0" d="M46.5,5c0-0.1-0.1-0.1-0.2-0.1l-1.5-0.1c-0.1,0-0.1,0-0.2,0.1l-0.5,1.3c0,0.1-0.1,0.1-0.2,0.1l-0.5,0
						c-0.1,0-0.2-0.1-0.2-0.2l2.2-5.8c0-0.1,0.1-0.1,0.2-0.1l0.6,0.1c0.1,0,0.1,0.1,0.2,0.1l1.2,6.1c0,0.1-0.1,0.2-0.2,0.2l-0.5,0
						c-0.1,0-0.1-0.1-0.2-0.1L46.5,5z M46.2,4C46.3,4,46.3,4,46.2,4L46,1.4c0,0,0-0.1,0-0.1l0,0c0,0,0,0,0,0.1l-0.8,2.5
						c0,0.1,0,0.1,0.1,0.1L46.2,4z"/>
				</g>
				<g>
					<path class="st0" d="M52,7.4c0,0.1-0.1,0.2-0.2,0.1l-0.5-0.1c-0.1,0-0.2-0.1-0.1-0.2l1.4-5.8c0-0.1,0.1-0.2,0.2-0.1l0.5,0.1
						c0.1,0,0.2,0.1,0.1,0.2L52,7.4z"/>
				</g>
				<g>
					<path class="st0" d="M57,8.2c0,0.1,0,0.1,0,0.1l1.9,0.8c0.1,0,0.1,0.1,0.1,0.2l-0.2,0.5c0,0.1-0.1,0.1-0.2,0.1l-2.6-1
						c-0.1,0-0.1-0.1-0.1-0.2l2.2-5.5c0-0.1,0.1-0.1,0.2-0.1l0.5,0.2C59,3.2,59,3.3,59,3.4L57,8.2z"/>
				</g>
				<g>
					<path class="st0" d="M65.1,11.8c0-0.1,0-0.2-0.1-0.2l-1.3-0.8c-0.1,0-0.1,0-0.2,0l-1.1,0.9c-0.1,0.1-0.1,0.1-0.2,0l-0.4-0.3
						c-0.1-0.1-0.1-0.2-0.1-0.2l4.6-4.1c0.1-0.1,0.1-0.1,0.2,0l0.5,0.3c0.1,0,0.1,0.1,0.1,0.2l-1.8,5.9c0,0.1-0.1,0.1-0.2,0.1
						l-0.4-0.3c-0.1,0-0.1-0.1-0.1-0.2L65.1,11.8z M65.3,10.8c0,0,0.1,0,0.1,0l0.9-2.4c0,0,0-0.1,0-0.1l0,0c0,0,0,0-0.1,0l-1.9,1.8
						c-0.1,0.1,0,0.1,0,0.1L65.3,10.8z"/>
				</g>
				<g>
					<path class="st0" d="M73.9,15.1c-0.3,0.3-0.8,0.5-1.2,0.5c-0.1,0-0.2,0.1-0.1,0.1c0.1,0.5-0.1,1.1-0.5,1.4
						c-0.7,0.8-1.9,0.7-2.6,0l-1.2-1.1c-0.1-0.1-0.1-0.2,0-0.3l4.1-4.3c0.1-0.1,0.2-0.1,0.3,0l1.2,1.1
						C74.5,13.3,74.6,14.4,73.9,15.1z M70.8,14.5c0-0.1-0.1,0-0.1,0l-1.3,1.4c0,0,0,0.1,0,0.1l0.7,0.6c0.4,0.4,1.1,0.4,1.4,0
						c0.4-0.5,0.4-1.1,0-1.5L70.8,14.5z M72,14.6c0.4,0.4,0.9,0.3,1.3,0c0.4-0.4,0.2-0.9-0.1-1.2l-0.7-0.6c0,0-0.1,0-0.1,0l-1.1,1.1
						c0,0,0,0.1,0,0.1L72,14.6z"/>
				</g>
				<g>
					<path class="st0" d="M74.5,21.5c0,0-0.1,0.1,0,0.1l1.2,1.6c0.1,0.1,0,0.2,0,0.3l-0.4,0.3c-0.1,0.1-0.2,0-0.3,0l-1.6-2.2
						c-0.1-0.1,0-0.2,0-0.3l4.8-3.5c0.1-0.1,0.2,0,0.3,0l0.3,0.4c0.1,0.1,0,0.2,0,0.3L74.5,21.5z"/>
				</g>
				<g>
					<path class="st0" d="M78.2,27.3c0,0-0.1,0.1,0,0.1l1,1.9c0,0.1,0,0.2-0.1,0.2l-0.4,0.2c-0.1,0-0.2,0-0.2-0.1L77,27.1
						c0-0.1,0-0.2,0.1-0.2l5.3-2.6c0.1,0,0.2,0,0.2,0.1l1.3,2.6c0,0.1,0,0.2-0.1,0.2l-0.4,0.2c-0.1,0-0.2,0-0.2-0.1l-1-1.9
						c0,0-0.1-0.1-0.1,0l-1.5,0.7c0,0-0.1,0.1,0,0.1l0.9,1.8c0,0.1,0,0.2-0.1,0.2L81,28.5c-0.1,0-0.2,0-0.2-0.1l-0.9-1.8
						c0,0-0.1-0.1-0.1,0L78.2,27.3z"/>
				</g>
			</g>
			<g>
				<g>
					<path class="st0" d="M0.4,64.2c-0.1,0-0.2,0-0.2-0.1L0,63.7c0-0.1,0-0.2,0.1-0.2l5.5-2.4c0.1,0,0.2,0,0.2,0.1L6,61.6
						c0,0.1,0,0.2-0.1,0.2L0.4,64.2z"/>
				</g>
				<g>
					<path class="st0" d="M4,71.1C4,71,3.9,71,4,70.9L6.9,67c0,0,0-0.1-0.1-0.1l-3.7,2.4c-0.1,0.1-0.2,0-0.2-0.1l-0.2-0.4
						c-0.1-0.1,0-0.2,0.1-0.2l5-3.2c0.1-0.1,0.2,0,0.2,0.1l0.4,0.6c0.1,0.1,0.1,0.1,0,0.2l-2.8,3.9c0,0,0,0.1,0.1,0.1l3.7-2.3
						c0.1-0.1,0.2,0,0.2,0.1l0.2,0.4c0.1,0.1,0,0.2-0.1,0.2l-5,3.2c-0.1,0.1-0.2,0-0.2-0.1L4,71.1z"/>
				</g>
				<g>
					<path class="st0" d="M14,78.1c-0.5-0.7-0.7-1.5,0-2.3c0.7-0.8,1.8-0.7,2.5-0.1c0.8,0.7,0.9,1.8,0.3,2.5l-0.1,0.1
						c-0.1,0.1-0.2,0.1-0.3,0L16.1,78c-0.1-0.1-0.1-0.2,0-0.3l0.1-0.1c0.4-0.5,0.1-1-0.2-1.3c-0.4-0.4-1-0.4-1.3,0
						c-0.5,0.6,0,1.2,0.4,1.7c0.6,0.9,0.7,1.7,0.1,2.5c-0.8,0.9-2,0.8-2.8,0.1c-0.9-0.8-1-2-0.3-2.7l0.1-0.1c0.1-0.1,0.2-0.1,0.3,0
						l0.4,0.3c0.1,0.1,0.1,0.2,0,0.3l-0.1,0.1c-0.4,0.4-0.3,1.1,0.2,1.5c0.5,0.4,1.2,0.4,1.5,0C15,79.3,14.6,78.9,14,78.1z"/>
				</g>
				<g>
					<path class="st0" d="M22.1,80.9l-2.6,4.5c-0.1,0.1-0.2,0.1-0.2,0.1l-0.4-0.3c-0.1-0.1-0.1-0.2-0.1-0.2l2.6-4.5c0,0,0-0.1,0-0.1
						l-1-0.6c-0.1-0.1-0.1-0.2-0.1-0.2l0.3-0.4c0-0.1,0.2-0.1,0.2-0.1l3,1.7c0.1,0.1,0.1,0.2,0.1,0.2l-0.3,0.4
						c-0.1,0.1-0.2,0.1-0.2,0.1l-1-0.6C22.1,80.8,22.1,80.9,22.1,80.9z"/>
				</g>
				<g>
					<path class="st0" d="M29.9,85.3c-0.2,0.7-0.6,1.9-0.9,2.5c-0.4,0.9-1.4,1.5-2.5,1.1c-1-0.4-1.5-1.3-1.3-2.5
						c0.2-0.7,0.6-1.9,0.9-2.5c0.4-0.9,1.4-1.5,2.5-1.1C29.6,83.2,30.1,84.1,29.9,85.3z M28.2,87.5c0.4-0.7,0.8-1.8,0.9-2.5
						c0.1-0.5-0.1-1.1-0.8-1.4c-0.6-0.2-1.1,0-1.4,0.6c-0.3,0.7-0.8,1.8-0.9,2.5c-0.1,0.5,0.1,1.1,0.8,1.4
						C27.3,88.3,27.8,88.1,28.2,87.5z"/>
				</g>
				<g>
					<path class="st0" d="M34.3,88.4c-0.1,0-0.1,0-0.1,0.1l-0.4,2.2c0,0.1-0.1,0.2-0.2,0.1l-0.5-0.1c-0.1,0-0.2-0.1-0.1-0.2l1-5.9
						c0-0.1,0.1-0.2,0.2-0.1l1.6,0.3c1,0.2,1.7,1.1,1.6,2.2c-0.1,0.7-0.6,1.2-1.2,1.4c-0.2,0.1-0.3,0.1-0.2,0.3l0.7,2.3
						c0,0.1,0,0.3-0.2,0.2l-0.5-0.1c-0.1,0-0.2-0.1-0.2-0.2L35,88.6c0-0.1-0.1-0.1-0.2-0.1L34.3,88.4z M34.8,85.5
						c-0.1,0-0.1,0-0.1,0.1l-0.3,1.9c0,0.1,0,0.1,0.1,0.1l0.8,0.1c0.6,0.1,1.1-0.3,1.2-0.9c0.1-0.6-0.3-1.1-0.9-1.2L34.8,85.5z"/>
				</g>
				<g>
					<path class="st0" d="M42.1,90.7C42.1,90.7,42.1,90.7,42.1,90.7l2.3,0.1c0.1,0,0.2,0.1,0.2,0.2l0,0.5c0,0.1-0.1,0.2-0.2,0.2
						l-2.9,0c-0.1,0-0.2-0.1-0.2-0.2l-0.1-5.9c0-0.1,0.1-0.2,0.2-0.2l2.9,0c0.1,0,0.2,0.1,0.2,0.2l0,0.5c0,0.1-0.1,0.2-0.2,0.2
						l-2.1,0c-0.1,0-0.1,0-0.1,0.1l0,1.6c0,0.1,0,0.1,0.1,0.1l2,0c0.1,0,0.2,0.1,0.2,0.2l0,0.5c0,0.1-0.1,0.2-0.2,0.2l-2,0
						c-0.1,0-0.1,0-0.1,0.1L42.1,90.7z"/>
				</g>
				<g>
					<path class="st0" d="M55.8,87.9c0-0.1-0.1-0.1-0.2-0.1l-1.4,0.4c-0.1,0-0.1,0.1-0.1,0.2l0,1.4c0,0.1,0,0.2-0.1,0.2l-0.5,0.1
						c-0.1,0-0.2,0-0.2-0.1l-0.1-6.2c0-0.1,0-0.2,0.1-0.2l0.6-0.2c0.1,0,0.2,0,0.2,0.1l3.3,5.2c0,0.1,0,0.2-0.1,0.2l-0.5,0.1
						c-0.1,0-0.2,0-0.2-0.1L55.8,87.9z M55.1,87.1c0.1,0,0.1-0.1,0-0.1l-1.3-2.2c0,0,0,0,0,0l0,0c0,0,0,0,0,0.1l0.2,2.6
						c0,0.1,0,0.1,0.1,0.1L55.1,87.1z"/>
				</g>
				<g>
					<path class="st0" d="M60.2,82l2.3,4.7c0,0.1,0,0.2-0.1,0.2l-0.4,0.2c-0.1,0-0.2,0-0.2-0.1l-2.3-4.7c0,0-0.1-0.1-0.1,0l-1.1,0.5
						c-0.1,0-0.2,0-0.2-0.1l-0.2-0.4c0-0.1,0-0.2,0.1-0.2l3.1-1.5c0.1,0,0.2,0,0.2,0.1l0.2,0.4c0,0.1,0,0.2-0.1,0.2l-1.1,0.5
						C60.2,81.9,60.1,81.9,60.2,82z"/>
				</g>
				<g>
					<path class="st0" d="M72,78.1c-0.1-0.2-0.3-0.4-0.4-0.6c-0.1-0.1-0.1,0-0.2,0.1c0,0.2-0.2,0.7-0.5,1c-0.8,0.7-1.9,0.6-2.6-0.2
						c-0.1-0.1-0.2-0.2-0.3-0.4c-0.6-0.8-0.6-1.9,0.2-2.6c0.8-0.7,1.9-0.5,2.7,0.2c0.5,0.5,1.4,1.4,1.8,2c0.6,0.9,0.6,1.9-0.2,2.6
						c-0.7,0.6-1.9,0.6-2.5-0.1c-0.1-0.1-0.1-0.2,0-0.3l0.4-0.3c0.1-0.1,0.2-0.1,0.3,0c0.3,0.3,1,0.4,1.4,0
						C72.3,79.2,72.3,78.7,72,78.1z M68.7,76c-0.4,0.4-0.4,1-0.1,1.4c0.1,0.1,0.2,0.3,0.3,0.4c0.4,0.4,1,0.5,1.4,0.1
						c0.4-0.4,0.5-0.9,0.1-1.4c-0.1-0.1-0.2-0.2-0.3-0.4C69.7,75.7,69.1,75.6,68.7,76z"/>
				</g>
				<g>
					<path class="st0" d="M77.3,72.6c-0.1,0-0.2,0-0.2,0.1l-0.9,1.2c-0.1,0.1-0.1,0.1,0,0.2l0.8,1.2c0,0.1,0,0.2,0,0.2l-0.3,0.4
						c-0.1,0.1-0.2,0.1-0.3,0l-3.7-5c-0.1-0.1,0-0.2,0-0.2l0.4-0.5c0.1-0.1,0.1-0.1,0.2-0.1l5.7,2.4c0.1,0,0.1,0.1,0,0.3l-0.3,0.4
						c-0.1,0.1-0.1,0.1-0.2,0.1L77.3,72.6z M76.4,72.3c0,0,0-0.1,0-0.1L74,71.1c0,0-0.1,0-0.1,0l0,0c0,0,0,0,0,0.1l1.6,2
						c0,0.1,0.1,0,0.1,0L76.4,72.3z"/>
				</g>
				<g>
					<path class="st0" d="M81.4,65.8C81.4,65.8,81.4,65.7,81.4,65.8L78,62.6c-0.1-0.1-0.1-0.1-0.1-0.2l0.4-0.8
						c0-0.1,0.2-0.1,0.2-0.1l5.3,2.7c0.1,0,0.1,0.2,0.1,0.2l-0.2,0.4c0,0.1-0.2,0.1-0.2,0.1l-4-2c0,0-0.1,0,0,0.1l3.5,3.2
						c0.1,0.1,0.1,0.1,0.1,0.2l-0.2,0.3c0,0.1-0.1,0.1-0.2,0.1l-4.6-0.9c0,0-0.1,0,0,0.1l4,2c0.1,0,0.1,0.2,0.1,0.2l-0.2,0.4
						c0,0.1-0.2,0.1-0.2,0.1l-5.3-2.7c-0.1,0-0.1-0.2-0.1-0.2l0.4-0.8c0-0.1,0.1-0.1,0.2-0.1L81.4,65.8z"/>
				</g>
			</g>
		</g>
		<g>
			<g>
				<path class="st0" d="M27.3,34.5c-0.4,0.4-1.1,0.7-2,0.7c-0.9,0-1.5-0.2-2-0.7c-0.5-0.5-0.7-1.1-0.7-2.2h1.6
					c0,0.5,0.1,0.9,0.3,1.1c0.1,0.2,0.4,0.3,0.7,0.3c0.4,0,0.6-0.1,0.8-0.3c0.2-0.2,0.3-0.6,0.3-1.1c0-1.1-0.2-1.3-0.9-1.7l-1.2-0.5
					c-1-0.4-1.4-1-1.4-2.5c0-0.9,0.3-1.6,0.8-2.1c0.4-0.4,1-0.6,1.7-0.6c0.8,0,1.4,0.2,1.8,0.6c0.5,0.5,0.7,1.2,0.7,2.2h-1.6
					c0-0.5,0-0.8-0.2-1.1c-0.1-0.2-0.4-0.3-0.7-0.3c-0.3,0-0.5,0.1-0.7,0.3c-0.2,0.2-0.3,0.6-0.3,1c0,0.8,0.1,1.1,0.8,1.4l1.2,0.5
					c1.2,0.5,1.5,1.1,1.5,2.8C28,33.3,27.8,34,27.3,34.5z"/>
			</g>
			<g>
				<path class="st0" d="M35.7,34.4c-0.4,0.5-1,0.8-2,0.8c-1,0-1.5-0.4-2-0.8c-0.8-0.8-0.7-2.3-0.7-4.3c0-2,0-3.5,0.7-4.3
					c0.4-0.5,1-0.8,2-0.8c1,0,1.5,0.4,2,0.8c0.8,0.8,0.7,2.3,0.7,4.3C36.4,32,36.5,33.5,35.7,34.4z M34.5,26.7
					c-0.1-0.2-0.4-0.4-0.8-0.4c-0.4,0-0.6,0.2-0.8,0.4c-0.3,0.5-0.4,1.5-0.4,3.3c0,1.8,0.1,2.9,0.4,3.3c0.1,0.2,0.4,0.4,0.8,0.4
					c0.4,0,0.6-0.2,0.8-0.4c0.3-0.5,0.3-1.5,0.3-3.3C34.9,28.2,34.8,27.2,34.5,26.7z"/>
			</g>
			<g>
				<path class="st0" d="M43.6,35.1L42.3,31h-0.9v4.1h-1.6V25h2.5c1.8,0,2.6,0.9,2.6,3c0,1.2-0.3,2.1-1.2,2.6l1.5,4.5H43.6z
					 M42.3,26.4h-1v3.1h1c0.8,0,1-0.7,1-1.5C43.3,27.1,43.2,26.4,42.3,26.4z"/>
			</g>
			<g>
				<path class="st0" d="M52.2,35.1L50.9,31H50v4.1h-1.6V25H51c1.8,0,2.6,0.9,2.6,3c0,1.2-0.3,2.1-1.2,2.6l1.5,4.5H52.2z M51,26.4
					h-1v3.1h1c0.9,0,1-0.7,1-1.5C52,27.1,51.8,26.4,51,26.4z"/>
			</g>
			<g>
				<path class="st0" d="M59.7,31.1v4h-1.6v-4l-2-6.1H58l1,4l1-4h1.7L59.7,31.1z"/>
			</g>
			<g>
				<path class="st0" d="M35.3,51.8l-2.4-6v6h-1.6V41.7h1.4l2.4,6v-6h1.6v10.1H35.3z"/>
			</g>
			<g>
				<path class="st0" d="M44.7,51.1c-0.4,0.5-1,0.8-2,0.8s-1.5-0.4-2-0.8C40,50.2,40,48.7,40,46.8c0-2,0-3.5,0.7-4.3
					c0.4-0.5,1-0.8,2-0.8s1.5,0.4,2,0.8c0.8,0.8,0.7,2.3,0.7,4.3C45.4,48.7,45.4,50.2,44.7,51.1z M43.5,43.4
					c-0.1-0.2-0.4-0.4-0.8-0.4c-0.4,0-0.6,0.2-0.8,0.4c-0.3,0.5-0.4,1.5-0.4,3.3c0,1.8,0.1,2.9,0.4,3.3c0.1,0.2,0.4,0.4,0.8,0.4
					c0.4,0,0.6-0.2,0.8-0.4c0.3-0.5,0.3-1.5,0.3-3.3C43.8,44.9,43.8,43.9,43.5,43.4z"/>
			</g>
			<g>
				<path class="st0" d="M51.5,43.1v8.7h-1.6v-8.7h-1.7v-1.4h5v1.4H51.5z"/>
			</g>
			<g>
				<path class="st0" d="M27.3,67.9c-0.4,0.4-1.1,0.7-2,0.7c-0.9,0-1.5-0.2-2-0.7c-0.5-0.5-0.7-1.1-0.7-2.2h1.6
					c0,0.5,0.1,0.9,0.3,1.1c0.1,0.2,0.4,0.3,0.7,0.3c0.4,0,0.6-0.1,0.8-0.3c0.2-0.2,0.3-0.6,0.3-1.1c0-1.1-0.2-1.3-0.9-1.7l-1.2-0.5
					c-1-0.4-1.4-1-1.4-2.5c0-0.9,0.3-1.6,0.8-2.1c0.4-0.4,1-0.6,1.7-0.6c0.8,0,1.4,0.2,1.8,0.6c0.5,0.5,0.7,1.2,0.7,2.2h-1.6
					c0-0.5,0-0.8-0.2-1.1c-0.1-0.2-0.4-0.3-0.7-0.3c-0.3,0-0.5,0.1-0.7,0.3c-0.2,0.2-0.3,0.6-0.3,1c0,0.8,0.1,1.1,0.8,1.4l1.2,0.5
					c1.2,0.5,1.5,1.1,1.5,2.8C28,66.7,27.8,67.4,27.3,67.9z"/>
			</g>
			<g>
				<path class="st0" d="M35.7,67.8c-0.4,0.5-1,0.8-2,0.8c-1,0-1.5-0.4-2-0.8c-0.8-0.8-0.7-2.3-0.7-4.3c0-2,0-3.5,0.7-4.3
					c0.4-0.5,1-0.8,2-0.8c1,0,1.5,0.4,2,0.8c0.8,0.8,0.7,2.3,0.7,4.3C36.4,65.4,36.5,66.9,35.7,67.8z M34.5,60.1
					c-0.1-0.2-0.4-0.4-0.8-0.4c-0.4,0-0.6,0.2-0.8,0.4c-0.3,0.5-0.4,1.5-0.4,3.3c0,1.8,0.1,2.9,0.4,3.3c0.1,0.2,0.4,0.4,0.8,0.4
					c0.4,0,0.6-0.2,0.8-0.4c0.3-0.5,0.3-1.5,0.3-3.3C34.9,61.6,34.8,60.6,34.5,60.1z"/>
			</g>
			<g>
				<path class="st0" d="M43.6,68.5l-1.3-4.1h-0.9v4.1h-1.6V58.4h2.5c1.8,0,2.6,0.9,2.6,3c0,1.2-0.3,2.1-1.2,2.6l1.5,4.5H43.6z
					 M42.3,59.9h-1v3.1h1c0.8,0,1-0.7,1-1.5C43.3,60.6,43.2,59.9,42.3,59.9z"/>
			</g>
			<g>
				<path class="st0" d="M52.2,68.5l-1.3-4.1H50v4.1h-1.6V58.4H51c1.8,0,2.6,0.9,2.6,3c0,1.2-0.3,2.1-1.2,2.6l1.5,4.5H52.2z
					 M51,59.9h-1v3.1h1c0.9,0,1-0.7,1-1.5C52,60.6,51.8,59.9,51,59.9z"/>
			</g>
			<g>
				<path class="st0" d="M59.7,64.6v4h-1.6v-4l-2-6.1H58l1,4l1-4h1.7L59.7,64.6z"/>
			</g>
		</g>
	</g>
	<g>
		<g>
			<rect x="11.3" y="45.8" class="st0" width="12" height="1.4"/>
		</g>
		<g>
			<rect x="60.9" y="45.8" class="st0" width="12" height="1.4"/>
		</g>
	</g>
</g>
</svg>
